<svg xmlns="http://www.w3.org/2000/svg" width="600" height="600" viewBox="0 0 600 600">
<defs>
<linearGradient id="sky" x1="0" y1="0" x2="0" y2="1"><stop offset="0" stop-color="#1a0536"/><stop offset=".7" stop-color="#6b1a7a"/><stop offset="1" stop-color="#ff4f8b"/></linearGradient>
<linearGradient id="sun" x1="0" y1="0" x2="0" y2="1"><stop offset="0" stop-color="#ffd319"/><stop offset="1" stop-color="#ff2975"/></linearGradient>
<mask id="m"><rect width="600" height="600" fill="#fff"/><rect x="0" y="300" width="600" height="2.0" fill="#000"/><rect x="0" y="314" width="600" height="3.6" fill="#000"/><rect x="0" y="328" width="600" height="5.2" fill="#000"/><rect x="0" y="342" width="600" height="6.8" fill="#000"/><rect x="0" y="356" width="600" height="8.4" fill="#000"/></mask>
</defs>
<rect width="600" height="360" fill="url(#sky)"/>
<circle cx="300" cy="300" r="140" fill="url(#sun)" mask="url(#m)"/>
<rect y="360" width="600" height="240" fill="#13002b"/>
<g stroke="#ff2cdf" stroke-width="2" opacity=".8"><line x1="0" y1="362" x2="600" y2="362"/><line x1="0" y1="368" x2="600" y2="368"/><line x1="0" y1="376.1" x2="600" y2="376.1"/><line x1="0" y1="387.035" x2="600" y2="387.035"/><line x1="0" y1="401.79725" x2="600" y2="401.79725"/><line x1="0" y1="421.7262875" x2="600" y2="421.7262875"/><line x1="0" y1="448.630488125" x2="600" y2="448.630488125"/><line x1="0" y1="484.95115896875" x2="600" y2="484.95115896875"/><line x1="0" y1="533.9840646078126" x2="600" y2="533.9840646078126"/><line x1="300" y1="360" x2="-600" y2="600"/><line x1="300" y1="360" x2="-510" y2="600"/><line x1="300" y1="360" x2="-420" y2="600"/><line x1="300" y1="360" x2="-330" y2="600"/><line x1="300" y1="360" x2="-240" y2="600"/><line x1="300" y1="360" x2="-150" y2="600"/><line x1="300" y1="360" x2="-60" y2="600"/><line x1="300" y1="360" x2="30" y2="600"/><line x1="300" y1="360" x2="120" y2="600"/><line x1="300" y1="360" x2="210" y2="600"/><line x1="300" y1="360" x2="300" y2="600"/><line x1="300" y1="360" x2="390" y2="600"/><line x1="300" y1="360" x2="480" y2="600"/><line x1="300" y1="360" x2="570" y2="600"/><line x1="300" y1="360" x2="660" y2="600"/><line x1="300" y1="360" x2="750" y2="600"/><line x1="300" y1="360" x2="840" y2="600"/><line x1="300" y1="360" x2="930" y2="600"/><line x1="300" y1="360" x2="1020" y2="600"/><line x1="300" y1="360" x2="1110" y2="600"/><line x1="300" y1="360" x2="1200" y2="600"/></g>
</svg>
